<?xml version="1.0" standalone="no"?>
<!DOCTYPE svg PUBLIC "-//W3C//DTD SVG 20010904//EN"
 "http://www.w3.org/TR/2001/REC-SVG-20010904/DTD/svg10.dtd">
<svg version="1.0" xmlns="http://www.w3.org/2000/svg"
 width="275.000000pt" height="150.000000pt" viewBox="0 0 275.000000 150.000000"
 preserveAspectRatio="xMidYMid meet">

<g transform="translate(0.000000,150.000000) scale(0.100000,-0.100000)"
fill="#000000" stroke="none">
<path d="M985 1344 c-22 -8 -47 -22 -55 -31 -13 -15 -13 -16 0 -7 8 6 34 16
57 23 23 6 45 16 48 21 8 13 -1 12 -50 -6z"/>
<path d="M1110 1341 c0 -5 -17 -9 -37 -8 -31 2 -40 -3 -52 -24 -12 -21 -12
-33 -3 -60 l12 -34 -5 32 c-6 41 3 63 21 56 8 -3 14 0 14 7 0 7 8 10 19 7 10
-2 25 0 34 5 40 22 102 -65 77 -106 -13 -20 -14 -20 38 1 7 3 12 -3 12 -15 0
-12 4 -24 10 -27 5 -3 10 -38 10 -78 2 -171 5 -256 12 -263 13 -13 38 18 38
48 0 16 5 50 11 75 10 37 18 48 44 59 36 15 59 39 51 53 -3 5 1 22 10 38 12
20 15 40 10 65 -8 42 -54 98 -65 79 -11 -17 -59 -41 -83 -41 -32 0 -75 28 -81
52 -6 23 -6 23 13 -2 11 -14 20 -19 20 -12 0 9 7 11 19 7 11 -3 23 0 27 6 4 8
3 9 -4 5 -18 -11 -72 22 -82 50 -7 19 -16 24 -38 22 -15 -1 -33 1 -40 6 -7 4
-12 3 -12 -3z m302 -145 c13 -18 9 -36 -7 -36 -8 0 -15 -5 -15 -11 0 -6 7 -8
16 -5 13 5 14 4 6 -7 -7 -8 -9 -17 -5 -20 3 -4 -1 -9 -10 -13 -13 -5 -14 -10
-4 -31 9 -19 8 -26 -3 -33 -19 -12 -26 -4 -11 14 9 10 9 16 1 21 -6 4 -8 15
-5 26 5 14 3 17 -9 13 -9 -3 -16 -10 -16 -15 0 -5 -7 -9 -15 -9 -7 0 -18 -7
-23 -16 -17 -31 -32 -4 -32 57 0 58 1 60 30 66 17 3 33 10 36 14 7 11 56 0 66
-15z"/>
<path d="M889 1272 c-11 -14 -11 -15 0 -5 7 6 20 9 27 6 8 -3 14 -3 14 0 0 14
-30 14 -41 -1z"/>
<path d="M936 1244 c-4 -20 -5 -38 -2 -41 2 -3 8 11 12 31 3 21 4 39 1 42 -2
3 -8 -11 -11 -32z"/>
<path d="M857 1226 c-10 -15 -16 -30 -13 -34 11 -10 38 25 34 44 -3 15 -6 14
-21 -10z"/>
<path d="M1043 1194 c3 -3 -3 -16 -14 -27 -11 -12 -27 -35 -35 -52 -13 -27
-13 -31 2 -42 11 -8 14 -18 9 -30 -5 -10 -7 -25 -6 -33 1 -8 -10 -28 -25 -43
-30 -33 -25 -46 11 -27 17 9 25 22 25 39 0 15 7 37 16 49 10 14 11 22 3 22 -6
0 -9 7 -5 15 3 8 1 15 -4 15 -5 0 -8 13 -8 29 1 20 10 36 29 51 32 23 37 40
12 40 -9 0 -14 -3 -10 -6z"/>
<path d="M1087 1188 c4 -7 8 -17 8 -22 0 -16 20 -17 40 -1 19 14 19 14 -7 15
-16 0 -28 5 -28 10 0 6 -5 10 -11 10 -6 0 -7 -5 -2 -12z"/>
<path d="M925 1165 c3 -14 7 -36 10 -50 3 -14 10 -25 16 -25 11 0 5 72 -7 92
-11 18 -24 7 -19 -17z"/>
<path d="M1163 1164 l-12 -26 26 17 c14 9 33 15 43 12 13 -3 17 0 13 9 -9 25
-57 17 -70 -12z"/>
<path d="M855 1082 c-14 -10 -18 -62 -5 -62 6 0 13 6 16 14 8 22 0 57 -11 48z"/>
<path d="M1230 1081 c0 -5 5 -13 10 -16 6 -3 10 -2 10 4 0 5 -4 13 -10 16 -5
3 -10 2 -10 -4z"/>
<path d="M1146 1071 c-3 -5 1 -11 9 -15 8 -3 15 -1 15 4 0 13 -18 22 -24 11z"/>
<path d="M954 1022 c5 -15 4 -22 -4 -20 -7 2 -14 -2 -17 -9 -3 -7 3 -9 17 -6
29 8 34 21 14 40 -16 16 -16 16 -10 -5z"/>
<path d="M991 921 c-8 -5 -9 -11 -3 -15 5 -3 12 1 16 9 6 17 6 18 -13 6z"/>
<path d="M394 881 c-26 -11 -40 -41 -19 -41 7 0 17 5 20 10 5 8 12 7 22 -1 12
-10 16 -10 24 2 8 13 9 12 9 -18 0 -5 -4 -8 -9 -8 -5 0 -13 -4 -18 -9 -5 -5
-2 -6 5 -1 10 5 13 2 10 -11 -2 -12 -13 -20 -28 -21 -14 -1 -19 0 -12 3 16 8
15 31 -2 37 -24 9 -24 -27 0 -76 12 -26 20 -47 17 -47 -12 0 -35 33 -47 67 -7
20 -19 39 -27 41 -11 4 -12 2 -1 -9 18 -20 15 -47 -8 -54 -11 -3 -19 -11 -17
-18 3 -14 41 -47 55 -47 14 0 24 -33 17 -53 -4 -8 -2 -18 4 -22 6 -3 11 -2 11
4 0 6 8 8 18 5 16 -5 16 -5 0 9 -10 8 -18 18 -18 22 0 5 9 0 20 -10 11 -10 20
-27 20 -38 0 -17 -2 -18 -17 -6 -15 13 -15 12 -2 -8 7 -12 16 -18 19 -12 4 5
15 0 25 -12 11 -11 15 -19 10 -18 -6 1 -27 -6 -48 -15 -36 -16 -41 -16 -64 0
-23 14 -25 14 -20 1 4 -11 1 -15 -13 -12 -13 3 -17 -1 -13 -11 3 -7 9 -12 13
-9 5 3 12 1 15 -5 4 -6 1 -9 -5 -8 -17 4 -21 -32 -8 -69 13 -35 22 -41 34 -21
4 7 3 8 -4 4 -7 -4 -12 -1 -12 8 0 9 3 15 8 14 11 -3 72 55 72 68 0 7 6 14 13
17 10 4 13 -2 9 -18 -3 -19 2 -25 32 -35 33 -10 41 -20 37 -42 0 -5 4 -8 10
-8 6 0 9 -6 6 -14 -3 -8 0 -20 8 -26 8 -6 17 -25 20 -41 4 -16 13 -29 20 -29
8 0 21 -12 28 -26 14 -27 14 -26 21 25 6 43 9 51 21 41 7 -6 26 -9 42 -6 15 2
31 5 36 5 4 1 7 11 6 24 0 12 -3 16 -6 10 -2 -7 -12 -13 -20 -13 -13 0 -13 3
-2 16 10 13 10 17 -2 25 -23 15 -34 10 -13 -6 19 -14 18 -15 -4 -21 -16 -5
-20 -9 -12 -14 8 -5 9 -10 2 -14 -6 -3 -13 3 -17 14 -7 23 -21 26 -28 8 -4 -9
-6 -8 -6 2 -1 8 -10 26 -21 40 -25 32 -25 40 3 41 l22 0 -24 10 c-12 5 -21 15
-18 22 4 11 -16 39 -25 34 -2 -1 3 4 11 11 18 15 27 15 52 2 27 -15 23 -1 -11
39 -17 20 -34 31 -43 28 -10 -4 -17 2 -21 17 -3 14 -18 27 -38 34 l-33 11 33
-5 c29 -5 47 9 22 18 -7 2 -7 19 -2 50 5 26 7 49 3 50 -3 2 -15 20 -25 41 -11
20 -26 37 -34 37 -11 0 -12 3 -3 14 20 24 83 -18 133 -86 38 -54 44 -58 55
-42 11 15 9 22 -14 48 -16 17 -19 24 -8 16 19 -15 19 -14 4 10 -9 14 -23 25
-30 25 -8 0 -14 5 -14 12 0 6 -4 15 -9 20 -5 5 -6 3 -2 -4 10 -19 -1 -16 -33
8 -31 23 -132 35 -167 20z m46 -147 c0 -8 -5 -12 -10 -9 -6 4 -8 11 -5 16 9
14 15 11 15 -7z m-56 -233 c4 -5 0 -12 -6 -14 -10 -4 -9 -8 2 -16 13 -9 13
-11 -2 -11 -10 0 -18 -7 -18 -15 0 -8 -4 -15 -8 -15 -10 0 -9 36 0 46 4 3 4
12 1 20 -6 16 22 20 31 5z m151 -11 c3 -5 -1 -10 -10 -10 -9 0 -13 5 -10 10 3
6 8 10 10 10 2 0 7 -4 10 -10z m-55 -20 c0 -5 -2 -10 -4 -10 -3 0 -8 5 -11 10
-3 6 -1 10 4 10 6 0 11 -4 11 -10z m94 -58 c3 -5 7 -33 10 -63 4 -36 3 -46 -3
-29 -4 14 -15 40 -24 57 -10 18 -17 34 -17 38 0 8 28 6 34 -3z m46 -36 c0 -3
-4 -8 -10 -11 -5 -3 -10 -1 -10 4 0 6 5 11 10 11 6 0 10 -2 10 -4z"/>
<path d="M3 825 c2 -29 9 -61 17 -69 14 -17 45 -22 35 -6 -3 6 1 7 9 4 9 -3
14 -9 12 -13 -9 -14 33 -9 45 5 9 11 9 21 -1 44 -10 24 -16 28 -30 20 -21 -11
-30 -4 -30 24 0 16 -2 18 -9 7 -7 -11 -10 -9 -15 7 -4 11 -13 23 -21 26 -13 4
-15 -4 -12 -49z m25 10 c-3 -3 -9 2 -12 12 -6 14 -5 15 5 6 7 -7 10 -15 7 -18z
m44 -57 c30 -29 35 -36 16 -25 -15 10 -38 17 -50 18 -21 0 -21 1 -4 8 18 7 18
8 3 14 -15 6 -25 27 -12 27 3 0 24 -19 47 -42z"/>
<path d="M70 819 c0 -5 5 -7 10 -4 6 3 10 8 10 11 0 2 -4 4 -10 4 -5 0 -10 -5
-10 -11z"/>
<path d="M251 776 c-7 -8 -10 -20 -6 -26 3 -5 1 -10 -5 -10 -6 0 -10 -10 -8
-22 2 -15 -2 -22 -10 -20 -8 1 -11 -2 -6 -9 10 -17 5 -139 -7 -161 -6 -12 -5
-24 3 -37 16 -26 4 -38 -19 -20 -10 7 -4 -1 13 -19 18 -18 42 -33 56 -34 18
-2 25 -8 26 -27 3 -38 12 -38 13 0 0 27 2 30 8 14 7 -17 7 77 0 95 -1 3 -3 12
-4 20 -4 30 -18 60 -27 60 -5 0 -4 -8 1 -19 6 -10 7 -21 4 -25 -8 -8 -33 49
-33 74 0 10 7 25 15 33 8 8 11 18 7 22 -4 4 0 5 8 3 12 -2 15 7 14 45 0 56
-22 88 -43 63z m2 -256 c3 -11 1 -18 -4 -14 -5 3 -9 -2 -9 -11 0 -9 4 -14 8
-11 5 3 6 -8 4 -25 -2 -16 -8 -29 -13 -29 -12 0 -15 62 -4 87 12 28 11 28 18
3z"/>
<path d="M302 770 c0 -14 2 -19 5 -12 2 6 2 18 0 25 -3 6 -5 1 -5 -13z"/>
<path d="M557 748 c-8 -31 15 -46 43 -28 12 7 12 12 -4 29 -24 27 -32 26 -39
-1z"/>
<path d="M833 742 c-39 -3 -42 -5 -30 -23 6 -10 18 -19 25 -19 7 0 39 -13 72
-30 32 -16 61 -26 64 -21 3 4 -6 13 -19 19 -14 7 -25 18 -25 25 0 28 -43 52
-87 49z"/>
<path d="M305 668 c-6 -16 -2 -39 8 -55 6 -9 3 -11 -7 -7 -9 3 -16 1 -16 -6 0
-7 14 -10 38 -8 47 4 57 37 18 58 -14 7 -23 17 -20 22 3 4 0 8 -6 8 -6 0 -13
-6 -15 -12z m39 -44 c9 -24 7 -28 -9 -14 -17 14 -20 30 -6 30 5 0 12 -7 15
-16z"/>
<path d="M815 670 c3 -5 15 -10 25 -10 10 0 22 -4 25 -10 3 -5 18 -10 33 -9
25 0 24 2 -13 19 -44 20 -80 26 -70 10z"/>
<path d="M1311 646 c-6 -16 -10 -31 -7 -33 7 -8 28 37 23 50 -3 7 -10 -1 -16
-17z"/>
<path d="M630 652 c12 -9 12 -13 -3 -30 -16 -18 -17 -20 -1 -26 11 -4 15 -2
11 8 -6 14 26 29 37 18 9 -8 7 -32 -1 -29 -18 5 -6 -20 18 -40 40 -34 50 -28
28 17 -10 21 -19 46 -19 53 0 8 -11 18 -24 21 -13 3 -32 9 -43 12 -14 5 -15 4
-3 -4z"/>
<path d="M1198 645 c-4 -5 -83 -15 -145 -19 -12 0 -28 -7 -35 -15 -10 -10 -10
-12 0 -7 6 4 12 3 12 -2 0 -4 18 -33 40 -62 50 -66 50 -81 15 -230 -2 -8 -18
-69 -35 -135 -39 -151 -43 -175 -26 -175 8 0 20 24 28 58 76 288 111 420 118
437 5 11 14 38 21 60 8 22 22 52 32 68 18 26 18 27 -1 27 -10 0 -21 -2 -24 -5z"/>
<path d="M915 626 l-30 -9 -1 -213 c-1 -169 2 -214 13 -218 10 -4 13 16 14 97
2 140 7 224 17 277 7 38 11 45 29 43 15 -2 21 3 20 15 -1 20 -17 22 -62 8z"/>
<path d="M822 593 c-18 -49 -22 -113 -6 -113 10 0 14 14 14 55 0 40 4 57 15
61 19 8 20 24 1 24 -7 0 -18 -12 -24 -27z"/>
<path d="M361 554 c0 -11 3 -14 6 -6 3 7 2 16 -1 19 -3 4 -6 -2 -5 -13z"/>
<path d="M325 549 c-4 -6 -5 -12 -2 -15 2 -3 7 2 10 11 7 17 1 20 -8 4z"/>
<path d="M1275 549 c-4 -6 -5 -12 -2 -15 2 -3 7 2 10 11 7 17 1 20 -8 4z"/>
<path d="M670 516 c0 -15 34 -78 37 -69 4 11 -23 73 -32 73 -3 0 -5 -2 -5 -4z"/>
<path d="M720 511 c0 -5 7 -14 15 -21 9 -7 13 -15 11 -18 -3 -3 4 -17 14 -33
11 -15 27 -43 35 -61 14 -32 14 -33 15 -6 0 15 -4 29 -9 32 -5 3 -7 14 -5 24
3 10 -10 32 -31 55 -38 38 -45 43 -45 28z m70 -81 c0 -5 -2 -10 -4 -10 -3 0
-8 5 -11 10 -3 6 -1 10 4 10 6 0 11 -4 11 -10z"/>
<path d="M633 459 c9 -6 15 -14 12 -18 -2 -5 4 -11 15 -14 29 -8 25 18 -5 31
-32 15 -46 15 -22 1z"/>
<path d="M720 405 c7 -8 17 -12 22 -9 6 4 5 10 -3 15 -22 14 -33 10 -19 -6z"/>
<path d="M1206 395 c-9 -26 -7 -32 5 -12 6 10 9 21 6 23 -2 3 -7 -2 -11 -11z"/>
<path d="M497 365 c3 -8 9 -12 14 -9 12 7 11 11 -5 17 -10 4 -13 1 -9 -8z"/>
<path d="M766 365 c-3 -9 0 -15 9 -15 8 0 15 7 15 15 0 8 -4 15 -9 15 -5 0
-11 -7 -15 -15z"/>
<path d="M314 330 c1 -50 20 -63 22 -15 l1 30 -5 -30 c-5 -28 -6 -27 -13 15
l-7 45 2 -45z"/>
<path d="M1175 310 c-17 -33 -19 -44 -6 -36 10 6 33 66 26 66 -3 0 -11 -13
-20 -30z"/>
<path d="M513 312 c10 -10 14 -23 10 -28 -4 -5 -2 -4 6 3 12 10 11 14 -2 27
-22 22 -34 20 -14 -2z"/>
<path d="M404 307 c-6 -7 -9 -18 -6 -25 2 -6 -3 -15 -12 -18 -9 -3 -16 -10
-16 -14 0 -5 14 -3 30 3 17 6 30 15 30 20 0 4 -4 5 -10 2 -7 -4 -7 3 0 19 10
27 2 34 -16 13z"/>
<path d="M766 312 c-2 -4 -1 -14 5 -22 7 -12 9 -10 9 8 0 23 -5 28 -14 14z"/>
<path d="M445 280 c-4 -6 8 -10 29 -10 20 0 36 5 36 10 0 6 -13 10 -29 10 -17
0 -33 -4 -36 -10z"/>
<path d="M306 253 c4 -16 24 -47 46 -71 21 -23 44 -53 50 -67 12 -26 28 -34
28 -12 -1 21 -60 108 -70 102 -6 -3 -10 4 -10 16 0 12 -10 30 -22 40 -28 25
-30 24 -22 -8z"/>
<path d="M1140 224 c0 -8 5 -12 10 -9 6 3 10 10 10 16 0 5 -4 9 -10 9 -5 0
-10 -7 -10 -16z"/>
<path d="M1256 164 c-9 -8 -16 -12 -16 -7 -1 13 -30 -30 -30 -44 0 -7 7 -13
16 -13 18 0 46 25 37 34 -3 3 2 8 11 12 17 6 23 34 7 34 -5 0 -17 -7 -25 -16z
m-11 -23 c3 -5 1 -12 -5 -16 -5 -3 -10 1 -10 9 0 18 6 21 15 7z"/>
</g>
</svg>
